<svg width="81" height="76" viewBox="0 0 81 76" fill="none" xmlns="http://www.w3.org/2000/svg">
<path d="M0.337524 30.8232C1.99864 22.0852 6.32775 14.8451 13.3249 9.10295C20.322 3.36082 28.547 0.489746 38 0.489746C42.7278 0.489746 47.1847 1.23872 51.3707 2.73667C55.5567 4.23462 59.3095 6.35671 62.6292 9.10295C61.7347 10.7257 61.0166 12.1151 60.4749 13.271C59.9331 14.4269 59.5651 15.5029 59.3709 16.4991C56.5597 13.8777 53.3334 11.803 49.6917 10.2751C46.05 8.74719 42.1528 7.98199 38 7.97949C31.5472 7.97949 25.7653 9.74333 20.6542 13.271C15.5431 16.7987 11.8375 21.3075 9.53752 26.7975C7.81252 26.7351 6.13608 27.0471 4.50819 27.7337C2.8803 28.4202 1.49008 29.4501 0.337524 30.8232ZM38 75.3872C28.5445 75.3872 20.3194 72.5161 13.3249 66.774C6.3303 61.0318 2.00119 53.7918 0.337524 45.0537C1.42364 46.4268 2.78191 47.4729 4.41236 48.1919C6.0428 48.9109 7.75119 49.238 9.53752 49.1731C11.8375 54.6656 15.5431 59.1594 20.6542 62.6546C25.7653 66.1498 31.5472 67.8974 38 67.8974C46.4972 67.8974 53.7333 64.9802 59.7082 59.1457C65.6831 53.3112 68.6693 46.2421 68.6667 37.9385C68.6667 36.8774 68.6181 35.8164 68.521 34.7553C68.4239 33.6943 68.2489 32.6332 67.9959 31.5722C68.6986 31.8218 69.418 32.0091 70.154 32.1339C70.89 32.2587 71.672 32.3212 72.5 32.3212C73.075 32.3212 73.65 32.29 74.225 32.2275C74.8 32.1651 75.3431 32.0715 75.8542 31.9467C75.982 32.9453 76.0944 33.929 76.1915 34.8976C76.2886 35.8663 76.3359 36.8799 76.3334 37.9385C76.3334 43.1189 75.3265 47.9872 73.3127 52.5435C71.2989 57.0997 68.5683 61.0631 65.1209 64.4334C61.6734 67.8038 57.6165 70.4727 52.95 72.44C48.2836 74.4073 43.3002 75.3897 38 75.3872ZM24.2 36.4405L32.25 28.5763L24.1042 20.6184L20.0792 24.5505L24.2 28.4827L20.0792 32.5084L24.2 36.4405ZM72.5 26.7038C70.3917 26.7038 68.5875 25.9711 67.0874 24.5056C65.5872 23.0401 64.8359 21.2763 64.8334 19.2141C64.8334 17.5289 65.3125 15.7351 66.2709 13.8327C67.2292 11.9303 69.3056 8.73096 72.5 4.23462C75.6945 8.72846 77.7709 11.9278 78.7292 13.8327C79.6875 15.7376 80.1667 17.5314 80.1667 19.2141C80.1667 21.2738 79.4166 23.0376 77.9165 24.5056C76.4164 25.9736 74.6109 26.7063 72.5 26.7038ZM51.8959 36.5341L56.0167 32.5084L51.8959 28.4827L55.9209 24.5505L51.8959 20.6184L43.75 28.5763L51.8959 36.5341ZM38 43.5558C36.3389 43.5558 34.7251 43.743 33.1585 44.1175C31.592 44.492 30.1072 45.0225 28.7042 45.7091L15 37.9385C15 36.9398 14.7445 36.0036 14.2334 35.1298C13.7222 34.256 13.0195 33.5694 12.125 33.0701C10.7195 32.3212 9.26663 32.1501 7.76652 32.5571C6.26641 32.964 5.0998 33.8216 4.26669 35.1298C3.50002 36.5029 3.32497 37.9235 3.74152 39.3915C4.15808 40.8595 5.03591 41.9979 6.37502 42.8068C7.26947 43.3061 8.2278 43.5558 9.25002 43.5558C10.2722 43.5558 11.2306 43.3061 12.125 42.8068L23.5292 49.2667C22.4431 50.3277 21.4681 51.4674 20.6044 52.6858C19.7406 53.9041 19.0225 55.2298 18.45 56.6628H24.775C26.1167 54.4159 27.9375 52.6059 30.2375 51.2328C32.5375 49.8596 35.125 49.1731 38 49.1731C40.875 49.1731 43.4625 49.8596 45.7625 51.2328C48.0625 52.6059 49.8834 54.4159 51.225 56.6628H57.55C56.0167 52.7931 53.5084 49.6412 50.0252 47.207C46.542 44.7729 42.5336 43.5558 38 43.5558Z" fill="white"/>
</svg>
