<svg width="63" height="65" viewBox="0 0 63 65" fill="none" xmlns="http://www.w3.org/2000/svg">
<path d="M29.8438 19H49.1251V38.2812L55.3751 44.5312V19C55.3751 15.5625 52.5626 12.75 49.1251 12.75H42.8751V3.375C42.8751 1.65625 41.4688 0.25 39.7501 0.25H27.2501C25.5313 0.25 24.1251 1.65625 24.1251 3.375V12.75H23.5938L29.8438 19ZM30.3751 6.5H36.6251V12.75H30.3751V6.5ZM32.9688 22.125H35.8438V25L32.9688 22.125ZM62.2188 60.2188L4.78131 2.78125L0.343811 7.1875L11.6876 18.5312C11.6876 18.6875 11.6251 18.8438 11.6251 19V53.375C11.6251 56.8125 14.4376 59.625 17.8751 59.625C17.8751 61.3438 19.2813 62.75 21.0001 62.75C22.7188 62.75 24.1251 61.3438 24.1251 59.625H42.8751C42.8751 61.3438 44.2813 62.75 46.0001 62.75C47.7188 62.75 49.1251 61.3438 49.1251 59.625C50.1876 59.625 51.1563 59.3438 52.0313 58.875L57.8126 64.6562L62.2188 60.2188ZM17.8751 53.375V24.7188L21.0001 27.8438V50.25H25.6876V32.5312L31.1563 38V50.25H35.8438V42.6875L41.3126 48.1563V50.25H43.4063L46.5313 53.375H17.8751ZM46.0001 22.125V35.1562L41.3126 30.4688V22.125H46.0001Z" fill="white"/>
</svg>
