<svg width="71" height="68" viewBox="0 0 71 68" fill="none" xmlns="http://www.w3.org/2000/svg">
<path d="M55.9717 13.9978C55.38 12.3494 53.7233 11.1759 51.7708 11.1759H19.2292C17.2767 11.1759 15.6496 12.3494 15.0283 13.9978L8.875 30.7338V53.0856C8.875 54.6223 10.2062 55.8796 11.8333 55.8796H14.7917C16.4187 55.8796 17.75 54.6223 17.75 53.0856V50.2916H53.25V53.0856C53.25 54.6223 54.5812 55.8796 56.2083 55.8796H59.1667C60.7937 55.8796 62.125 54.6223 62.125 53.0856V30.7338L55.9717 13.9978ZM20.2646 16.7639H50.7058L53.7825 25.1458H17.1879L20.2646 16.7639ZM56.2083 44.7037H14.7917V31.6837L15.1467 30.7338H55.8829L56.2083 31.6837V44.7037Z" fill="white"/>
<path d="M22.1875 41.9098C24.6383 41.9098 26.625 40.0334 26.625 37.7188C26.625 35.4042 24.6383 33.5278 22.1875 33.5278C19.7367 33.5278 17.75 35.4042 17.75 37.7188C17.75 40.0334 19.7367 41.9098 22.1875 41.9098Z" fill="white"/>
<path d="M48.8125 41.9098C51.2633 41.9098 53.25 40.0334 53.25 37.7188C53.25 35.4042 51.2633 33.5278 48.8125 33.5278C46.3617 33.5278 44.375 35.4042 44.375 37.7188C44.375 40.0334 46.3617 41.9098 48.8125 41.9098Z" fill="white"/>
</svg>
